<svg xmlns="http://www.w3.org/2000/svg" width="124" height="119" viewBox="0 0 124 119">
  <g id="Group_188" data-name="Group 188" transform="translate(-1801 -1275.5)">
    <rect id="Rectangle_18" data-name="Rectangle 18" width="124" height="119" rx="13" transform="translate(1801 1275.5)" fill="#fd1d1d"/>
    <path id="Icon_awesome-instagram" data-name="Icon awesome-instagram" d="M37.949,20.722A19.453,19.453,0,1,0,57.4,40.175,19.422,19.422,0,0,0,37.949,20.722Zm0,32.1A12.647,12.647,0,1,1,50.6,40.175,12.67,12.67,0,0,1,37.949,52.822Zm24.786-32.9A4.537,4.537,0,1,1,58.2,15.389,4.527,4.527,0,0,1,62.735,19.926ZM75.62,24.531c-.288-6.078-1.676-11.462-6.129-15.9C65.055,4.2,59.671,2.809,53.593,2.5c-6.264-.356-25.04-.356-31.3,0-6.061.288-11.445,1.676-15.9,6.112S.566,18.436.261,24.514c-.356,6.264-.356,25.04,0,31.3C.549,61.9,1.938,67.281,6.39,71.717s9.82,5.824,15.9,6.129c6.264.356,25.04.356,31.3,0,6.078-.288,11.462-1.676,15.9-6.129,4.436-4.436,5.824-9.82,6.129-15.9.356-6.264.356-25.023,0-31.288ZM67.527,62.54a12.8,12.8,0,0,1-7.212,7.212c-4.995,1.981-16.846,1.524-22.365,1.524s-17.388.44-22.365-1.524A12.8,12.8,0,0,1,8.371,62.54C6.39,57.546,6.847,45.694,6.847,40.175S6.407,22.787,8.371,17.81A12.8,12.8,0,0,1,15.584,10.6C20.578,8.616,32.43,9.073,37.949,9.073s17.388-.44,22.365,1.524a12.8,12.8,0,0,1,7.212,7.212c1.981,4.995,1.524,16.846,1.524,22.365S69.508,57.563,67.527,62.54Z" transform="translate(1825.15 1294.82)" fill="#fff"/>
  </g>
</svg>
