<svg id="Icon_ionic-md-rocket" data-name="Icon ionic-md-rocket" xmlns="http://www.w3.org/2000/svg" width="64.08" height="106.789" viewBox="0 0 64.08 106.789">
  <path id="Path_1" data-name="Path 1" d="M26.189,31.407a23.954,23.954,0,0,1-9.544-2.425,1.73,1.73,0,0,0-2.425,1.691L15,42.019a.87.87,0,0,0,1.4.623l3.226-2.447a.88.88,0,0,1,1.268.222l4.561,7.141a.873.873,0,0,0,1.468,0l4.561-7.141a.88.88,0,0,1,1.268-.222l3.226,2.447a.87.87,0,0,0,1.4-.623l.779-11.346a1.723,1.723,0,0,0-2.425-1.691A24.06,24.06,0,0,1,26.189,31.407Z" transform="translate(5.825 58.829)" fill="#15418c"/>
  <path id="Path_2" data-name="Path 2" d="M71.421,62.773,60.743,51.85c0-35.151-20.735-50.725-20.735-50.725S19.073,16.7,19.073,51.85L8.394,62.773a1.85,1.85,0,0,0-.489,1.58L12,89.226a1.7,1.7,0,0,0,2.625,1.2l14.928-10.1s4.605,4.45,10.479,4.45,10.256-4.45,10.256-4.45l14.928,10.1a1.71,1.71,0,0,0,2.625-1.2l4.116-24.9A1.977,1.977,0,0,0,71.421,62.773ZM40.008,40.281a7.125,7.125,0,1,1,6.83-7.119A6.969,6.969,0,0,1,40.008,40.281Z" transform="translate(-7.882 -1.125)" fill="#15418c"/>
</svg>
