<svg xmlns="http://www.w3.org/2000/svg" width="87.5" height="145.818" viewBox="0 0 87.5 145.818">
  <g id="Icon_ionic-md-rocket" data-name="Icon ionic-md-rocket" transform="translate(-7.882 -1.125)">
    <path id="Path_1" data-name="Path 1" d="M30.565,32.349c-5.5,0-10.086-2.066-13.032-3.311a2.362,2.362,0,0,0-3.311,2.309L15.285,46.84a1.188,1.188,0,0,0,1.914.851l4.4-3.342a1.2,1.2,0,0,1,1.732.3L29.563,54.4a1.192,1.192,0,0,0,2,0L37.8,44.653a1.2,1.2,0,0,1,1.732-.3l4.4,3.342a1.188,1.188,0,0,0,1.914-.851l1.063-15.493A2.352,2.352,0,0,0,43.6,29.038C40.621,30.284,36.064,32.349,30.565,32.349Z" transform="translate(21.032 91.992)" fill="#dd361c"/>
    <path id="Path_2" data-name="Path 2" d="M94.644,85.3,80.062,70.388c0-48-28.313-69.263-28.313-69.263S23.163,22.39,23.163,70.388L8.581,85.3a2.526,2.526,0,0,0-.668,2.157l5.59,33.963a2.325,2.325,0,0,0,3.585,1.64l20.384-13.792s6.288,6.076,14.308,6.076,14-6.076,14-6.076l20.384,13.792a2.336,2.336,0,0,0,3.585-1.64l5.62-33.994A2.7,2.7,0,0,0,94.644,85.3ZM51.749,54.592a9.73,9.73,0,1,1,9.326-9.721A9.516,9.516,0,0,1,51.749,54.592Z" transform="translate(0)" fill="#dd361c"/>
  </g>
</svg>
