<svg xmlns="http://www.w3.org/2000/svg" width="85.984" height="148.481" viewBox="0 0 85.984 148.481">
  <g id="Group_3" data-name="Group 3" transform="translate(-982 -676)">
    <g id="Group_2" data-name="Group 2">
      <path id="Path_4" data-name="Path 4" d="M63.358,0H22.724A22.749,22.749,0,0,0,0,22.724V125.757a22.749,22.749,0,0,0,22.724,22.724H63.358a22.749,22.749,0,0,0,22.626-22.724V22.724A22.749,22.749,0,0,0,63.358,0ZM79.031,125.757a15.7,15.7,0,0,1-15.674,15.7H22.724a15.7,15.7,0,0,1-15.674-15.7V121.04H79.031Zm0-11.767H7.051V35.376h71.98Zm0-85.787H7.051V22.724A15.674,15.674,0,0,1,22.723,7.051H63.358A15.674,15.674,0,0,1,79.031,22.723Z" transform="translate(982 676)" fill="#15418c"/>
      <path id="Path_6" data-name="Path 6" d="M38.543,5.68H13.977a2.457,2.457,0,1,0,0,4.913H38.543a2.457,2.457,0,1,0,0-4.914Z" transform="translate(998.781 684.274)" fill="#15418c"/>
      <path id="Path_7" data-name="Path 7" d="M19.815,41.7a8.82,8.82,0,0,1-2.874-1.72,8.819,8.819,0,0,1-1.72-2.874.565.565,0,0,0-.762-.344.688.688,0,0,0-.221.172l-2.457,2.9a.3.3,0,0,0,0,.418.221.221,0,0,0,.147,0l1.376.2a.3.3,0,0,1,.246.319h0L12.936,43.6a.3.3,0,0,0,.221.344h.123l2.825-.614a.3.3,0,0,1,.344.221h0l.2,1.376a.3.3,0,0,0,.319.246.221.221,0,0,0,.172,0l2.9-2.457a.614.614,0,0,0,0-.835A.516.516,0,0,0,19.815,41.7Z" transform="translate(999.035 729.476)" fill="#15418c"/>
      <path id="Path_8" data-name="Path 8" d="M22.059,36.4H16.875a.811.811,0,0,0-.516.27l-4.913,6.977a.59.59,0,0,0,0,.811.442.442,0,0,0,.246,0l6.019,1.179a5.7,5.7,0,0,0,1.449,3.587,5.528,5.528,0,0,0,3.538,1.4l1.155,6.019a.59.59,0,0,0,.688.442h.246l6.977-4.913a.639.639,0,0,0,.246-.491V46.472c8.451-8.451,7.223-17.2,7.223-17.2S30.51,27.948,22.059,36.4ZM33.31,38.512h0a2.457,2.457,0,0,1-3.341,0h0a2.309,2.309,0,1,1,3.341.025Z" transform="translate(998.438 718.534)" fill="#15418c"/>
      <path id="Path_9" data-name="Path 9" d="M8.932,26.068v-1.94h0L12.371,29.7H13.8V22.58H12.691v5.552h0L9.251,22.58H7.9v7H8.932Z" transform="translate(993.508 708.892)" fill="#15418c"/>
      <path id="Path_10" data-name="Path 10" d="M13.482,28.741a5.92,5.92,0,0,0,.983,0,4.1,4.1,0,0,0,.835-.27v-.884a3.734,3.734,0,0,1-.884.3,3.292,3.292,0,0,1-.86,0,1.523,1.523,0,0,1-1.13-.418,1.842,1.842,0,0,1-.418-1.179h3.538v-.614a2.457,2.457,0,0,0-.59-1.744,2.457,2.457,0,0,0-3.439,0,2.948,2.948,0,0,0-.663,2.039,2.776,2.776,0,0,0,.712,1.99,2.457,2.457,0,0,0,1.916.785Zm-1.056-4.3a1.155,1.155,0,0,1,.86-.344,1.056,1.056,0,0,1,.835.344,1.376,1.376,0,0,1,.319,1.007H11.983a1.646,1.646,0,0,1,.442-1.007Z" transform="translate(997.802 709.83)" fill="#15418c"/>
      <path id="Path_11" data-name="Path 11" d="M15.727,28.576l.712-2.457q.147-.54.442-1.843h0c.221.958.368,1.572.467,1.843l.688,2.457h1.253l1.5-5.306h-1.13L18.97,25.9a16.778,16.778,0,0,0-.344,1.646h0v-.762a1.927,1.927,0,0,0-.2-.712l-.762-2.8H16.415l-.958,2.8a1.3,1.3,0,0,1-.172.688c-.172.319,0,.565-.147.786h0a15.747,15.747,0,0,0-.319-1.646l-.689-2.63H13l1.474,5.306Z" transform="translate(1000.937 709.897)" fill="#15418c"/>
      <path id="Path_12" data-name="Path 12" d="M18.026,26.245a5.4,5.4,0,0,1,.737.344,1.818,1.818,0,0,1,.393.27.516.516,0,0,1,0,.344c0,.418-.344.614-1.032.614A4.4,4.4,0,0,1,16.38,27.4v.958a3.734,3.734,0,0,0,1.7.319,2.457,2.457,0,0,0,1.621-.418,1.327,1.327,0,0,0,.565-1.179,1.867,1.867,0,0,0-.123-.663,1.646,1.646,0,0,0-.442-.491,5.8,5.8,0,0,0-.958-.467,4.766,4.766,0,0,1-.835-.393.516.516,0,0,1-.221-.418q0-.516.884-.516a3.808,3.808,0,0,1,1.449.369l.368-.86a4.4,4.4,0,0,0-1.769-.368,2.653,2.653,0,0,0-1.5.368,1.179,1.179,0,0,0-.54,1.056,1.253,1.253,0,0,0,.319.909,3.022,3.022,0,0,0,1.13.639Z" transform="translate(1005.86 709.895)" fill="#15418c"/>
      <rect id="Rectangle_62" data-name="Rectangle 62" width="1.13" height="7.468" transform="translate(1027.448 731.03)" fill="#15418c"/>
      <path id="Path_13" data-name="Path 13" d="M22.123,28.706a5.428,5.428,0,0,0,.958,0,3.317,3.317,0,0,0,.835-.27v-.884a3.587,3.587,0,0,1-.86.3,3.366,3.366,0,0,1-.884,0,1.5,1.5,0,0,1-1.1-.418,1.6,1.6,0,0,1-.418-1.179h3.538v-.614a2.457,2.457,0,0,0-.614-1.744,2.162,2.162,0,0,0-1.671-.639,2.26,2.26,0,0,0-1.769.737,2.948,2.948,0,0,0-.639,2.039,2.776,2.776,0,0,0,.688,1.99,2.457,2.457,0,0,0,1.941.687Zm-1.081-4.3a1.179,1.179,0,0,1,.86-.344,1.155,1.155,0,0,1,.86.344,1.5,1.5,0,0,1,.319,1.007H20.747a1.646,1.646,0,0,1,.3-1.007Z" transform="translate(1010.387 709.865)" fill="#15418c"/>
      <path id="Path_14" data-name="Path 14" d="M22.539,27.7a1.449,1.449,0,0,0,1.621,1.671,2.456,2.456,0,0,0,.59,0,2.039,2.039,0,0,0,.491-.123v-.86a3.12,3.12,0,0,1-.835.123.614.614,0,0,1-.516-.2.737.737,0,0,1-.221-.59v-2.9H25v-.86H23.473V22.79h-.688l-.393,1.13-.762.418v.491h.909Z" transform="translate(1013.508 709.198)" fill="#15418c"/>
      <path id="Path_15" data-name="Path 15" d="M23.977,27.7c0,1.106.516,1.671,1.6,1.671a2.6,2.6,0,0,0,.614,0,1.818,1.818,0,0,0,.467-.123v-.86a3.1,3.1,0,0,1-.811.123.663.663,0,0,1-.54-.2.712.712,0,0,1-.2-.59v-2.9h1.5v-.86h-1.5V22.79h-.712l-.368,1.13-.786.418v.491h.737Z" transform="translate(1015.853 709.198)" fill="#15418c"/>
      <path id="Path_16" data-name="Path 16" d="M27.563,28.706a5.428,5.428,0,0,0,.958,0,3.685,3.685,0,0,0,.835-.27v-.884a3.587,3.587,0,0,1-.86.3,3.366,3.366,0,0,1-.884,0,1.425,1.425,0,0,1-1.106-.418,1.72,1.72,0,0,1-.418-1.179h3.538v-.614a2.457,2.457,0,0,0-.614-1.744,2.162,2.162,0,0,0-1.671-.639,2.26,2.26,0,0,0-1.769.737,2.948,2.948,0,0,0-.639,2.039,2.776,2.776,0,0,0,.688,1.99A2.457,2.457,0,0,0,27.563,28.706Zm-1.081-4.3a1.179,1.179,0,0,1,.86-.344,1.155,1.155,0,0,1,.86.344,1.646,1.646,0,0,1,.319,1.007H26.064a1.646,1.646,0,0,1,.442-1.007Z" transform="translate(1018.311 709.865)" fill="#15418c"/>
      <path id="Path_17" data-name="Path 17" d="M28.529,25.883a1.523,1.523,0,0,1,.418-1.155,1.425,1.425,0,0,1,1.106-.442h.491V23.23h-.565a1.572,1.572,0,0,0-.909.27,2.064,2.064,0,0,0-.688.762h0l-.147-.958H27.35V28.61h1.13Z" transform="translate(1021.84 709.838)" fill="#15418c"/>
      <circle id="Ellipse_5" data-name="Ellipse 5" cx="5.805" cy="5.805" r="5.805" transform="translate(1019.5 801.532)" fill="none" stroke="#15418c" stroke-miterlimit="10" stroke-width="2"/>
    </g>
  </g>
</svg>
