<svg xmlns="http://www.w3.org/2000/svg" width="133.922" height="158.566" viewBox="0 0 133.922 158.566">
  <g id="Group_76" data-name="Group 76" transform="translate(1479.033 -2715.008) rotate(45)">
    <path id="Icon_metro-space-shuttle" data-name="Icon metro-space-shuttle" d="M33.732,47.007a28.547,28.547,0,0,1-14.581,3.482H12.187V47.007H8.705q-.707,0-1.224-1.279a8.2,8.2,0,0,1-.517-3.074,9.861,9.861,0,0,1,.381-2.666,29.689,29.689,0,0,1-5.25-.571Q0,38.955,0,38.3t2.095-1.115a29.689,29.689,0,0,1,5.25-.571,9.861,9.861,0,0,1-.381-2.666,8.2,8.2,0,0,1,.517-3.074Q8,29.6,8.705,29.6h3.482V26.115h6.964A28.546,28.546,0,0,1,33.732,29.6H94.286q2.285.381,5.794.979t4.38.762a37.55,37.55,0,0,1,8.161,2.2,15.286,15.286,0,0,1,4.543,2.584,3.291,3.291,0,0,1,1.224,2.176,3.291,3.291,0,0,1-1.224,2.176,15.287,15.287,0,0,1-4.543,2.584,37.55,37.55,0,0,1-8.161,2.2q-.871.163-4.38.762t-5.794.979H33.732ZM94.613,33.3a5.786,5.786,0,0,1,0,10.011L99.02,44.94a7.8,7.8,0,0,0,0-13.275ZM34,47.878H89.227Q77.42,49.945,64.417,52.23a15.484,15.484,0,0,0-6.148,1.306,17.033,17.033,0,0,0-4.516,2.612L52.23,57.453,36.561,73.122a12.052,12.052,0,0,1-3.836,2.448A12.308,12.308,0,0,1,27.856,76.6H22.633l-5.06-25.245h1.578A30.272,30.272,0,0,0,34,47.877ZM19.151,25.245H17.573L22.633,0h5.223a12.241,12.241,0,0,1,4.9,1.034,12.108,12.108,0,0,1,3.808,2.448L52.23,19.151q.218.218.6.571a19.092,19.092,0,0,0,1.66,1.251,20.7,20.7,0,0,0,2.639,1.578A19.8,19.8,0,0,0,60.473,23.8a14.211,14.211,0,0,0,3.945.571l24.809,4.352H34a30.272,30.272,0,0,0-14.853-3.482Z" transform="translate(968.664 2870.938) rotate(45)" fill="#15418c"/>
    <path id="Icon_metro-space-shuttle-2" data-name="Icon metro-space-shuttle" d="M33.732,47.007a28.547,28.547,0,0,1-14.581,3.482H12.187V47.007H8.705q-.707,0-1.224-1.279a8.2,8.2,0,0,1-.517-3.074,9.861,9.861,0,0,1,.381-2.666,29.689,29.689,0,0,1-5.25-.571Q0,38.955,0,38.3t2.095-1.115a29.689,29.689,0,0,1,5.25-.571,9.861,9.861,0,0,1-.381-2.666,8.2,8.2,0,0,1,.517-3.074Q8,29.6,8.705,29.6h3.482V26.115h6.964A28.546,28.546,0,0,1,33.732,29.6H94.286q2.285.381,5.794.979t4.38.762a37.55,37.55,0,0,1,8.161,2.2,15.286,15.286,0,0,1,4.543,2.584,3.291,3.291,0,0,1,1.224,2.176,3.291,3.291,0,0,1-1.224,2.176,15.287,15.287,0,0,1-4.543,2.584,37.55,37.55,0,0,1-8.161,2.2q-.871.163-4.38.762t-5.794.979H33.732ZM94.613,33.3a5.786,5.786,0,0,1,0,10.011L99.02,44.94a7.8,7.8,0,0,0,0-13.275ZM34,47.878H89.227Q77.42,49.945,64.417,52.23a15.484,15.484,0,0,0-6.148,1.306,17.033,17.033,0,0,0-4.516,2.612L52.23,57.453,36.561,73.122a12.052,12.052,0,0,1-3.836,2.448A12.308,12.308,0,0,1,27.856,76.6H22.633l-5.06-25.245h1.578A30.272,30.272,0,0,0,34,47.877ZM19.151,25.245H17.573L22.633,0h5.223a12.241,12.241,0,0,1,4.9,1.034,12.108,12.108,0,0,1,3.808,2.448L52.23,19.151q.218.218.6.571a19.092,19.092,0,0,0,1.66,1.251,20.7,20.7,0,0,0,2.639,1.578A19.8,19.8,0,0,0,60.473,23.8a14.211,14.211,0,0,0,3.945.571l24.809,4.352H34a30.272,30.272,0,0,0-14.853-3.482Z" transform="translate(956.544 2939.878) rotate(45)" fill="#dd361c"/>
  </g>
</svg>
