<svg xmlns="http://www.w3.org/2000/svg" viewBox="0 0 37.19 37.19"><defs><style>.cls-1,.cls-2{fill:#231f20;}.cls-2{font-size:3.66px;font-family:OpenSans-Semibold, Open Sans;font-weight:600;}.cls-3{fill:none;stroke:#231f20;stroke-miterlimit:10;stroke-width:0.52px;}</style></defs><g id="Layer_2" data-name="Layer 2"><g id="Layer_1-2" data-name="Layer 1"><path class="cls-1" d="M37.19,8H0V2.13A2.14,2.14,0,0,1,2.13,0H35.06a2.13,2.13,0,0,1,2.13,2.13ZM.61,7.35h36V2.13A1.52,1.52,0,0,0,35.06.61H2.13A1.52,1.52,0,0,0,.61,2.13Z"/><path class="cls-1" d="M35.06,37.19H2.13A2.13,2.13,0,0,1,0,35.06V9.48H37.19V35.06A2.13,2.13,0,0,1,35.06,37.19ZM.61,10.09v25a1.52,1.52,0,0,0,1.52,1.52H35.06a1.52,1.52,0,0,0,1.52-1.52v-25Z"/><text class="cls-2" transform="translate(8.88 16.3)">Newsletter</text><g id="Icon_ionic-md-rocket" data-name="Icon ionic-md-rocket"><path id="Path_1" data-name="Path 1" class="cls-1" d="M16.23,27.89a1.77,1.77,0,0,1-.37-.7.13.13,0,0,0-.19-.07s-.05,0-.06,0l-.74.83a.07.07,0,0,0,0,.1l0,0h.35a.06.06,0,0,1,.06.08h0l-.24.75s0,.08.05.08h0l.74-.23c.05,0,.09,0,.09.05h0l0,.35a.05.05,0,0,0,.07.05l.05,0,.82-.73a.17.17,0,0,0,0-.22l-.06,0A1.62,1.62,0,0,1,16.23,27.89Z"/><path id="Path_2" data-name="Path 2" class="cls-1" d="M20,27.71l.14-1.35a6.78,6.78,0,0,0,2.31-4.65A6.71,6.71,0,0,0,17.77,24l-1.36.15a.16.16,0,0,0-.13.08L14.8,26.17a.15.15,0,0,0,0,.21l.06,0,1.54.15a1.28,1.28,0,0,0,.28.9,1.22,1.22,0,0,0,.89.27l.15,1.54a.13.13,0,0,0,.17.1l.06,0,1.94-1.47A.29.29,0,0,0,20,27.71Zm-.24-3.32a.63.63,0,0,1,.05-.89.67.67,0,0,1,.9-.12.63.63,0,0,1-.05.89l0,0a.63.63,0,0,1-.87.1Z"/></g><circle class="cls-3" cx="3.27" cy="3.3" r="1.12"/><circle class="cls-3" cx="6.81" cy="3.3" r="1.12"/><circle class="cls-3" cx="10.35" cy="3.3" r="1.12"/></g></g></svg>