<svg xmlns="http://www.w3.org/2000/svg" width="412.634" height="91.555" viewBox="0 0 412.634 91.555">
  <g id="Group_181" data-name="Group 181" transform="translate(-1407.183 -3772)">
    <path id="Icon_awesome-industry" data-name="Icon awesome-industry" d="M97.1,29.181,68.666,47.273V33.319a4.908,4.908,0,0,0-7.538-4.138L32.7,47.273V7.155a4.9,4.9,0,0,0-4.9-4.9H4.9A4.9,4.9,0,0,0,0,7.155V88.9a4.9,4.9,0,0,0,4.9,4.9H99.729a4.9,4.9,0,0,0,4.9-4.9V33.319A4.908,4.908,0,0,0,97.1,29.181Z" transform="translate(1407.183 3769.75)" fill="#fff"/>
    <path id="Icon_awesome-industry-2" data-name="Icon awesome-industry" d="M97.1,29.181,68.666,47.273V33.319a4.908,4.908,0,0,0-7.538-4.138L32.7,47.273V7.155a4.9,4.9,0,0,0-4.9-4.9H4.9A4.9,4.9,0,0,0,0,7.155V88.9a4.9,4.9,0,0,0,4.9,4.9H99.729a4.9,4.9,0,0,0,4.9-4.9V33.319A4.908,4.908,0,0,0,97.1,29.181Z" transform="translate(1561.183 3769.75)" fill="#fff"/>
    <path id="Icon_awesome-industry-3" data-name="Icon awesome-industry" d="M97.1,29.181,68.666,47.273V33.319a4.908,4.908,0,0,0-7.538-4.138L32.7,47.273V7.155a4.9,4.9,0,0,0-4.9-4.9H4.9A4.9,4.9,0,0,0,0,7.155V88.9a4.9,4.9,0,0,0,4.9,4.9H99.729a4.9,4.9,0,0,0,4.9-4.9V33.319A4.908,4.908,0,0,0,97.1,29.181Z" transform="translate(1715.183 3769.75)" fill="#fff"/>
  </g>
</svg>
