<svg xmlns="http://www.w3.org/2000/svg" width="124" height="119" viewBox="0 0 124 119">
  <g id="Group_189" data-name="Group 189" transform="translate(-1604 -1276.5)">
    <rect id="Rectangle_17" data-name="Rectangle 17" width="124" height="119" rx="13" transform="translate(1604 1276.5)" fill="#1da1f2"/>
    <path id="Icon_awesome-twitter" data-name="Icon awesome-twitter" d="M79.179,21.244c.056.784.056,1.568.056,2.352,0,23.91-18.2,51.461-51.461,51.461A51.112,51.112,0,0,1,0,66.937a37.415,37.415,0,0,0,4.368.224,36.223,36.223,0,0,0,22.455-7.727A18.119,18.119,0,0,1,9.911,46.89a22.809,22.809,0,0,0,3.416.28,19.129,19.129,0,0,0,4.76-.616A18.089,18.089,0,0,1,3.584,28.8v-.224a18.215,18.215,0,0,0,8.175,2.3,18.114,18.114,0,0,1-5.6-24.19A51.411,51.411,0,0,0,43.453,25.611,20.418,20.418,0,0,1,43,21.468a18.1,18.1,0,0,1,31.3-12.375A35.61,35.61,0,0,0,85.786,4.725a18.038,18.038,0,0,1-7.951,9.967,36.259,36.259,0,0,0,10.415-2.8,38.88,38.88,0,0,1-9.071,9.351Z" transform="translate(1622.178 1296.35)" fill="#fff"/>
  </g>
</svg>
